<svg width="25" height="25" viewBox="0 0 25 25" fill="none" xmlns="http://www.w3.org/2000/svg">
<g id="fi-rr-trash" clip-path="url(#clip0_689_6952)">
<path id="Vector" d="M21.8747 4.16667H18.6455C18.4037 2.99105 17.7641 1.93474 16.8343 1.17575C15.9046 0.41676 14.7416 0.00151513 13.5413 0L11.458 0C10.2578 0.00151513 9.0948 0.41676 8.16504 1.17575C7.23528 1.93474 6.59561 2.99105 6.35384 4.16667H3.12467C2.84841 4.16667 2.58346 4.27641 2.3881 4.47176C2.19275 4.66711 2.08301 4.93207 2.08301 5.20833C2.08301 5.4846 2.19275 5.74955 2.3881 5.9449C2.58346 6.14025 2.84841 6.25 3.12467 6.25H4.16634V19.7917C4.168 21.1725 4.71726 22.4963 5.69365 23.4727C6.67005 24.4491 7.99385 24.9983 9.37467 25H15.6247C17.0055 24.9983 18.3293 24.4491 19.3057 23.4727C20.2821 22.4963 20.8314 21.1725 20.833 19.7917V6.25H21.8747C22.1509 6.25 22.4159 6.14025 22.6112 5.9449C22.8066 5.74955 22.9163 5.4846 22.9163 5.20833C22.9163 4.93207 22.8066 4.66711 22.6112 4.47176C22.4159 4.27641 22.1509 4.16667 21.8747 4.16667ZM11.458 2.08333H13.5413C14.1875 2.08412 14.8175 2.28477 15.3451 2.65775C15.8727 3.03074 16.272 3.5578 16.4882 4.16667H8.51113C8.72737 3.5578 9.12665 3.03074 9.65424 2.65775C10.1818 2.28477 10.8119 2.08412 11.458 2.08333ZM18.7497 19.7917C18.7497 20.6205 18.4204 21.4153 17.8344 22.0014C17.2483 22.5874 16.4535 22.9167 15.6247 22.9167H9.37467C8.54587 22.9167 7.75102 22.5874 7.16497 22.0014C6.57892 21.4153 6.24967 20.6205 6.24967 19.7917V6.25H18.7497V19.7917Z" fill="black"/>
<path id="Vector_2" d="M10.4167 18.7493C10.6929 18.7493 10.9579 18.6396 11.1532 18.4442C11.3486 18.2489 11.4583 17.9839 11.4583 17.7077V11.4577C11.4583 11.1814 11.3486 10.9165 11.1532 10.7211C10.9579 10.5258 10.6929 10.416 10.4167 10.416C10.1404 10.416 9.87545 10.5258 9.6801 10.7211C9.48475 10.9165 9.375 11.1814 9.375 11.4577V17.7077C9.375 17.9839 9.48475 18.2489 9.6801 18.4442C9.87545 18.6396 10.1404 18.7493 10.4167 18.7493Z" fill="black"/>
<path id="Vector_3" d="M14.5832 18.7493C14.8594 18.7493 15.1244 18.6396 15.3198 18.4442C15.5151 18.2489 15.6248 17.9839 15.6248 17.7077V11.4577C15.6248 11.1814 15.5151 10.9165 15.3198 10.7211C15.1244 10.5258 14.8594 10.416 14.5832 10.416C14.3069 10.416 14.042 10.5258 13.8466 10.7211C13.6513 10.9165 13.5415 11.1814 13.5415 11.4577V17.7077C13.5415 17.9839 13.6513 18.2489 13.8466 18.4442C14.042 18.6396 14.3069 18.7493 14.5832 18.7493Z" fill="black"/>
</g>
<defs>
<clipPath id="clip0_689_6952">
<rect width="25" height="25" fill="white"/>
</clipPath>
</defs>
</svg>
