<svg width="44" height="44" viewBox="0 0 44 44" fill="none" xmlns="http://www.w3.org/2000/svg">
<g id="botao_fechar">
<circle id="Ellipse 9" cx="22" cy="22" r="22" fill="#185228"/>
<path id="Vector" d="M31.8087 12.1912C31.3275 11.7102 30.6749 11.4399 29.9945 11.4399C29.3141 11.4399 28.6615 11.7102 28.1803 12.1912L21.5445 18.827L14.9087 12.1912C14.4247 11.7238 13.7766 11.4652 13.1037 11.471C12.4309 11.4769 11.7873 11.7467 11.3116 12.2225C10.8358 12.6983 10.5659 13.3419 10.5601 14.0147C10.5542 14.6875 10.8129 15.3357 11.2803 15.8196L17.9161 22.4554L11.2803 29.0912C10.8129 29.5752 10.5542 30.2234 10.5601 30.8962C10.5659 31.569 10.8358 32.2126 11.3116 32.6884C11.7873 33.1641 12.4309 33.434 13.1037 33.4398C13.7766 33.4457 14.4247 33.187 14.9087 32.7196L21.5445 26.0838L28.1803 32.7196C28.6643 33.187 29.3125 33.4457 29.9853 33.4398C30.6581 33.434 31.3017 33.1641 31.7774 32.6884C32.2532 32.2126 32.5231 31.569 32.5289 30.8962C32.5348 30.2234 32.2761 29.5752 31.8087 29.0912L25.1729 22.4554L31.8087 15.8196C32.2898 15.3384 32.56 14.6859 32.56 14.0054C32.56 13.325 32.2898 12.6725 31.8087 12.1912Z" fill="white"/>
</g>
</svg>
