<svg width="16" height="19" viewBox="0 0 16 19" fill="none" xmlns="http://www.w3.org/2000/svg">
<g id="fi-rr-download" clip-path="url(#clip0_800_1873)">
<path id="Vector" d="M6.58565 13.8424C6.77138 14.046 6.99192 14.2076 7.23465 14.3178C7.47738 14.4281 7.73756 14.4848 8.00031 14.4848C8.26306 14.4848 8.52324 14.4281 8.76598 14.3178C9.00871 14.2076 9.22925 14.046 9.41498 13.8424L11.5556 11.4964C11.6704 11.3573 11.732 11.1752 11.7276 10.9877C11.7232 10.8002 11.6532 10.6217 11.532 10.4893C11.4109 10.3568 11.2479 10.2805 11.0768 10.276C10.9058 10.2716 10.7397 10.3395 10.613 10.4656L8.66231 12.604L8.66698 1.33313C8.66698 1.13937 8.59674 0.953538 8.47172 0.816525C8.34669 0.679512 8.17712 0.602539 8.00031 0.602539V0.602539C7.8235 0.602539 7.65393 0.679512 7.52891 0.816525C7.40388 0.953538 7.33365 1.13937 7.33365 1.33313L7.32765 12.5901L5.38765 10.4656C5.26255 10.3286 5.09292 10.2516 4.91608 10.2517C4.73923 10.2518 4.56965 10.3288 4.44465 10.4659C4.31964 10.603 4.24945 10.7889 4.24951 10.9827C4.24957 11.1765 4.31989 11.3624 4.44498 11.4993L6.58565 13.8424Z" fill="white"/>
<path id="Vector_2" d="M15.3333 12.292C15.1565 12.292 14.987 12.369 14.8619 12.506C14.7369 12.643 14.6667 12.8288 14.6667 13.0226V15.945C14.6667 16.1387 14.5964 16.3245 14.4714 16.4616C14.3464 16.5986 14.1768 16.6755 14 16.6755H2C1.82319 16.6755 1.65362 16.5986 1.5286 16.4616C1.40357 16.3245 1.33333 16.1387 1.33333 15.945V13.0226C1.33333 12.8288 1.2631 12.643 1.13807 12.506C1.01305 12.369 0.843478 12.292 0.666667 12.292C0.489856 12.292 0.320286 12.369 0.195262 12.506C0.0702379 12.643 0 12.8288 0 13.0226L0 15.945C0 16.5262 0.210714 17.0837 0.585786 17.4948C0.960859 17.9058 1.46957 18.1367 2 18.1367H14C14.5304 18.1367 15.0391 17.9058 15.4142 17.4948C15.7893 17.0837 16 16.5262 16 15.945V13.0226C16 12.8288 15.9298 12.643 15.8047 12.506C15.6797 12.369 15.5101 12.292 15.3333 12.292Z" fill="white"/>
</g>
<defs>
<clipPath id="clip0_800_1873">
<rect width="16" height="17.5342" fill="white" transform="translate(0 0.602539)"/>
</clipPath>
</defs>
</svg>
