<svg width="23" height="23" viewBox="0 0 23 23" fill="none" xmlns="http://www.w3.org/2000/svg">
<g id="fi-rr-document" clip-path="url(#clip0_429_841)">
<path id="Vector" d="M16.2917 13.4167C16.2917 13.6709 16.1908 13.9146 16.0111 14.0943C15.8313 14.2741 15.5876 14.375 15.3334 14.375H7.66675C7.41258 14.375 7.16883 14.2741 6.9891 14.0943C6.80938 13.9146 6.70842 13.6709 6.70842 13.4167C6.70842 13.1625 6.80938 12.9188 6.9891 12.739C7.16883 12.5593 7.41258 12.4584 7.66675 12.4584H15.3334C15.5876 12.4584 15.8313 12.5593 16.0111 12.739C16.1908 12.9188 16.2917 13.1625 16.2917 13.4167ZM12.4584 16.2917H7.66675C7.41258 16.2917 7.16883 16.3927 6.9891 16.5724C6.80938 16.7521 6.70842 16.9959 6.70842 17.25C6.70842 17.5042 6.80938 17.7479 6.9891 17.9277C7.16883 18.1074 7.41258 18.2084 7.66675 18.2084H12.4584C12.7126 18.2084 12.9563 18.1074 13.1361 17.9277C13.3158 17.7479 13.4167 17.5042 13.4167 17.25C13.4167 16.9959 13.3158 16.7521 13.1361 16.5724C12.9563 16.3927 12.7126 16.2917 12.4584 16.2917ZM21.0834 10.0481V18.2084C21.0819 19.4787 20.5766 20.6966 19.6783 21.5949C18.78 22.4932 17.5621 22.9985 16.2917 23H6.70842C5.43805 22.9985 4.22016 22.4932 3.32188 21.5949C2.42359 20.6966 1.91827 19.4787 1.91675 18.2084V4.79169C1.91827 3.52133 2.42359 2.30343 3.32188 1.40515C4.22016 0.506867 5.43805 0.00154379 6.70842 2.20883e-05H11.0353C11.9166 -0.00224622 12.7896 0.17021 13.6038 0.50742C14.4181 0.844631 15.1574 1.3399 15.779 1.96461L19.1179 5.30536C19.7429 5.92659 20.2385 6.66567 20.5759 7.47979C20.9133 8.29391 21.0858 9.16689 21.0834 10.0481ZM14.424 3.31969C14.1224 3.02755 13.7837 2.77624 13.4167 2.57219V6.70835C13.4167 6.96252 13.5177 7.20628 13.6974 7.386C13.8772 7.56572 14.1209 7.66669 14.3751 7.66669H18.5112C18.3071 7.29983 18.0554 6.96149 17.7628 6.66044L14.424 3.31969ZM19.1667 10.0481C19.1667 9.89002 19.1361 9.73861 19.1217 9.58335H14.3751C13.6126 9.58335 12.8813 9.28045 12.3421 8.74129C11.803 8.20212 11.5001 7.47085 11.5001 6.70835V1.96173C11.3448 1.94736 11.1925 1.91669 11.0353 1.91669H6.70842C5.94592 1.91669 5.21465 2.21959 4.67548 2.75876C4.13632 3.29792 3.83341 4.02919 3.83341 4.79169V18.2084C3.83341 18.9709 4.13632 19.7021 4.67548 20.2413C5.21465 20.7805 5.94592 21.0834 6.70842 21.0834H16.2917C17.0542 21.0834 17.7855 20.7805 18.3247 20.2413C18.8638 19.7021 19.1667 18.9709 19.1667 18.2084V10.0481Z" fill="white"/>
</g>
<defs>
<clipPath id="clip0_429_841">
<rect width="23" height="23" fill="white"/>
</clipPath>
</defs>
</svg>
