<svg width="25" height="25" viewBox="0 0 25 25" fill="none" xmlns="http://www.w3.org/2000/svg">
<g id="fi-rr-lock" clip-path="url(#clip0_378_1413)">
<path id="Vector" d="M19.7916 8.775V7.29167C19.7916 5.3578 19.0234 3.50313 17.6559 2.13568C16.2885 0.768227 14.4338 0 12.4999 0C10.566 0 8.71138 0.768227 7.34393 2.13568C5.97648 3.50313 5.20825 5.3578 5.20825 7.29167V8.775C4.2805 9.1799 3.49085 9.84638 2.93586 10.6929C2.38086 11.5395 2.08458 12.5294 2.08325 13.5417V19.7917C2.08491 21.1725 2.63417 22.4963 3.61056 23.4727C4.58696 24.4491 5.91076 24.9983 7.29159 25H17.7083C19.0891 24.9983 20.4129 24.4491 21.3893 23.4727C22.3657 22.4963 22.9149 21.1725 22.9166 19.7917V13.5417C22.9153 12.5294 22.619 11.5395 22.064 10.6929C21.509 9.84638 20.7193 9.1799 19.7916 8.775ZM7.29159 7.29167C7.29159 5.91033 7.84032 4.58557 8.81707 3.60882C9.79382 2.63207 11.1186 2.08333 12.4999 2.08333C13.8813 2.08333 15.206 2.63207 16.1828 3.60882C17.1595 4.58557 17.7083 5.91033 17.7083 7.29167V8.33333H7.29159V7.29167ZM20.8333 19.7917C20.8333 20.6205 20.504 21.4153 19.918 22.0014C19.3319 22.5874 18.5371 22.9167 17.7083 22.9167H7.29159C6.46278 22.9167 5.66793 22.5874 5.08188 22.0014C4.49583 21.4153 4.16659 20.6205 4.16659 19.7917V13.5417C4.16659 12.7129 4.49583 11.918 5.08188 11.332C5.66793 10.7459 6.46278 10.4167 7.29159 10.4167H17.7083C18.5371 10.4167 19.3319 10.7459 19.918 11.332C20.504 11.918 20.8333 12.7129 20.8333 13.5417V19.7917Z" fill="black"/>
<path id="Vector_2" d="M12.4999 14.583C12.2237 14.583 11.9587 14.6928 11.7634 14.8881C11.568 15.0835 11.4583 15.3484 11.4583 15.6247V17.708C11.4583 17.9843 11.568 18.2492 11.7634 18.4446C11.9587 18.6399 12.2237 18.7497 12.4999 18.7497C12.7762 18.7497 13.0411 18.6399 13.2365 18.4446C13.4318 18.2492 13.5416 17.9843 13.5416 17.708V15.6247C13.5416 15.3484 13.4318 15.0835 13.2365 14.8881C13.0411 14.6928 12.7762 14.583 12.4999 14.583Z" fill="black"/>
</g>
<defs>
<clipPath id="clip0_378_1413">
<rect width="25" height="25" fill="white"/>
</clipPath>
</defs>
</svg>
