<svg width="18" height="18" viewBox="0 0 18 18" fill="none" xmlns="http://www.w3.org/2000/svg">
<g id="fi-rr-pencil" clip-path="url(#clip0_378_1396)">
<path id="Vector" d="M17.1399 0.860965C16.63 0.351863 15.9389 0.065918 15.2184 0.065918C14.4978 0.065918 13.8067 0.351863 13.2969 0.860965L1.09885 13.059C0.749541 13.4063 0.472575 13.8195 0.283976 14.2746C0.0953784 14.7296 -0.00110693 15.2176 0.000102789 15.7102V17.25C0.000102789 17.4489 0.0791204 17.6396 0.219773 17.7803C0.360425 17.9209 0.55119 18 0.750103 18H2.28985C2.78242 18.0014 3.27038 17.905 3.72547 17.7166C4.18056 17.5281 4.59374 17.2512 4.9411 16.902L17.1399 4.70321C17.6487 4.19336 17.9345 3.50244 17.9345 2.78209C17.9345 2.06174 17.6487 1.37082 17.1399 0.860965ZM3.8806 15.8415C3.45761 16.2617 2.88608 16.4982 2.28985 16.5H1.5001V15.7102C1.49934 15.4146 1.55722 15.1219 1.67038 14.8488C1.78354 14.5757 1.94974 14.3279 2.15935 14.1195L11.4166 4.86221L13.1416 6.58721L3.8806 15.8415ZM16.0786 3.64271L14.1991 5.52296L12.4741 3.80171L14.3544 1.92147C14.4676 1.80845 14.602 1.71884 14.7499 1.65777C14.8978 1.5967 15.0563 1.56536 15.2163 1.56553C15.3763 1.56571 15.5347 1.59739 15.6825 1.65879C15.8302 1.72018 15.9645 1.81007 16.0775 1.92334C16.1905 2.03661 16.2801 2.17102 16.3412 2.31892C16.4022 2.46681 16.4336 2.62528 16.4334 2.78529C16.4332 2.9453 16.4016 3.1037 16.3402 3.25146C16.2788 3.39922 16.1889 3.53345 16.0756 3.64647L16.0786 3.64271Z" fill="black"/>
</g>
<defs>
<clipPath id="clip0_378_1396">
<rect width="18" height="18" fill="white"/>
</clipPath>
</defs>
</svg>
