<svg width="22" height="22" viewBox="0 0 22 22" fill="none" xmlns="http://www.w3.org/2000/svg">
<g id="fi-rr-physics" clip-path="url(#clip0_693_10432)">
<path id="Vector" d="M20.6827 1.31765C18.5065 -0.858519 15.2569 -0.327769 10.9999 2.87598C6.74385 -0.327769 3.49519 -0.859435 1.31719 1.31765C-0.860812 3.49473 -0.328229 6.74339 2.87552 11.0004C-0.328229 15.2565 -0.859896 18.506 1.31719 20.6831C1.72537 21.1064 2.21588 21.4416 2.75851 21.6681C3.30113 21.8947 3.88439 22.0077 4.47235 22.0004C6.2791 22.0004 8.46077 21.036 10.9999 19.1257C13.5382 21.036 15.7199 22.0004 17.5275 22.0004C18.1155 22.0077 18.6987 21.8947 19.2414 21.6681C19.784 21.4416 20.2745 21.1064 20.6827 20.6831C22.8598 18.506 22.3327 15.2574 19.1244 11.0004C22.3281 6.74339 22.8598 3.49473 20.6827 1.31765ZM17.4945 1.8594C17.8448 1.84885 18.1936 1.91 18.5194 2.0391C18.8452 2.1682 19.1413 2.36252 19.3893 2.61014C20.9898 4.21156 19.8073 6.93039 17.9336 9.52089C17.1654 8.61522 16.3001 7.67381 15.3138 6.68656C14.3274 5.69931 13.3833 4.83397 12.4776 4.06489C14.2174 2.80631 16.0159 1.8594 17.4945 1.8594ZM16.785 11.0004C15.8583 12.1187 14.8765 13.1646 14.0204 14.0254C13.1642 14.8861 12.1183 15.8587 10.9999 16.7855C9.8816 15.8587 8.83569 14.877 7.97952 14.0254C7.12335 13.1738 6.1416 12.1187 5.21485 11.0004C6.1416 9.88205 7.12335 8.83522 7.97952 7.97997C8.83569 7.12472 9.8816 6.14206 10.9999 5.21439C12.1183 6.14022 13.1642 7.12381 14.0249 7.97997C14.8857 8.83614 15.8583 9.88205 16.785 11.0004ZM2.6106 2.61106C2.85835 2.36301 3.15429 2.16834 3.48016 2.03907C3.80603 1.90979 4.15494 1.84864 4.50535 1.8594C5.98394 1.8594 7.78244 2.80631 9.52227 4.06489C8.6166 4.83397 7.67427 5.69931 6.6861 6.68656C5.69794 7.67381 4.83444 8.61155 4.06535 9.52089C2.1926 6.93039 1.00827 4.21156 2.6106 2.61106ZM2.6106 19.386C1.0101 17.7855 2.1926 15.0658 4.06535 12.4762C4.83444 13.3819 5.69977 14.3233 6.6861 15.3105C7.67244 16.2978 8.6111 17.165 9.51769 17.9331C6.9281 19.8086 4.20927 20.992 2.6106 19.3897V19.386ZM19.3856 19.386C17.786 20.9847 15.0681 19.805 12.4785 17.9331C13.3824 17.165 14.3247 16.295 15.3101 15.3105C16.2955 14.326 17.1618 13.3855 17.9299 12.4762C19.8073 15.0704 20.9916 17.7892 19.3893 19.3897L19.3856 19.386Z" fill="white"/>
<path id="Vector_2" d="M10.9998 12.8337C12.0124 12.8337 12.8332 12.0128 12.8332 11.0003C12.8332 9.9878 12.0124 9.16699 10.9998 9.16699C9.98731 9.16699 9.1665 9.9878 9.1665 11.0003C9.1665 12.0128 9.98731 12.8337 10.9998 12.8337Z" fill="white"/>
</g>
<defs>
<clipPath id="clip0_693_10432">
<rect width="22" height="22" fill="white"/>
</clipPath>
</defs>
</svg>
