<svg width="100" height="100" viewBox="0 0 100 100" fill="none" xmlns="http://www.w3.org/2000/svg">
<g id="fi-rr-shield-exclamation" clip-path="url(#clip0_691_6961)">
<path id="Vector" d="M50.0004 62.5001C48.8954 62.5001 47.8355 62.0611 47.0541 61.2797C46.2727 60.4983 45.8338 59.4385 45.8338 58.3334V25.0001C45.8338 23.895 46.2727 22.8352 47.0541 22.0538C47.8355 21.2724 48.8954 20.8334 50.0004 20.8334C51.1055 20.8334 52.1653 21.2724 52.9467 22.0538C53.7281 22.8352 54.1671 23.895 54.1671 25.0001V58.3334C54.1671 59.4385 53.7281 60.4983 52.9467 61.2797C52.1653 62.0611 51.1055 62.5001 50.0004 62.5001ZM53.3046 99.0001C62.3046 95.3834 91.6671 81.1626 91.6671 50.1793V28.6334C91.6717 24.2543 90.2944 19.9854 87.7312 16.4347C85.1681 12.8841 81.55 10.2328 77.3921 8.85843L51.3129 0.212596C50.4615 -0.0747716 49.5393 -0.0747716 48.6879 0.212596L22.6088 8.85843C18.4509 10.2328 14.8327 12.8841 12.2696 16.4347C9.70647 19.9854 8.32913 24.2543 8.33375 28.6334V50.1793C8.33375 77.5209 37.5213 94.2459 46.4713 98.7209C47.6032 99.2611 48.7852 99.6895 50.0004 100C51.1302 99.7691 52.2363 99.4343 53.3046 99.0001ZM74.7671 16.7668C77.261 17.5935 79.4309 19.185 80.9687 21.3152C82.5066 23.4455 83.3341 26.0061 83.3338 28.6334V50.1793C83.3338 75.9418 57.9713 88.1418 50.1963 91.2668C42.3296 87.3334 16.6671 72.7459 16.6671 50.1793V28.6334C16.6667 26.0061 17.4943 23.4455 19.0321 21.3152C20.5699 19.185 22.7399 17.5935 25.2338 16.7668L50.0004 8.55843L74.7671 16.7668ZM50.0004 70.8334C49.1763 70.8334 48.3708 71.0778 47.6855 71.5356C47.0003 71.9935 46.4663 72.6442 46.1509 73.4056C45.8356 74.1669 45.753 75.0047 45.9138 75.813C46.0746 76.6212 46.4714 77.3637 47.0541 77.9464C47.6369 78.5291 48.3793 78.9259 49.1875 79.0867C49.9958 79.2475 50.8336 79.165 51.5949 78.8496C52.3563 78.5342 53.007 78.0002 53.4649 77.315C53.9227 76.6298 54.1671 75.8242 54.1671 75.0001C54.1671 73.895 53.7281 72.8352 52.9467 72.0538C52.1653 71.2724 51.1055 70.8334 50.0004 70.8334Z" fill="white"/>
</g>
<defs>
<clipPath id="clip0_691_6961">
<rect width="100" height="100" fill="white"/>
</clipPath>
</defs>
</svg>
