<svg width="81" height="81" viewBox="0 0 81 81" fill="none" xmlns="http://www.w3.org/2000/svg">
<g id="fi-rr-sad" clip-path="url(#clip0_756_2555)">
<path id="Vector" d="M40.4258 80.4414C32.5145 80.4414 24.781 78.0955 18.203 73.7002C11.625 69.3049 6.49812 63.0578 3.47062 55.7488C0.443113 48.4397 -0.349021 40.3971 1.19439 32.6378C2.7378 24.8786 6.54743 17.7513 12.1415 12.1572C17.7356 6.56305 24.8629 2.75342 32.6222 1.21001C40.3814 -0.333396 48.4241 0.458738 55.7331 3.48624C63.0422 6.51375 69.2893 11.6406 73.6846 18.2186C78.0798 24.7966 80.4258 32.5302 80.4258 40.4414C80.4143 51.0466 76.1964 61.2141 68.6974 68.713C61.1984 76.212 51.0309 80.43 40.4258 80.4414ZM40.4258 7.10809C33.8331 7.10809 27.3884 9.06306 21.9068 12.7258C16.4252 16.3885 12.1527 21.5944 9.62982 27.6853C7.10689 33.7762 6.44678 40.4784 7.73296 46.9444C9.01913 53.4105 12.1938 59.3499 16.8556 64.0117C21.5173 68.6734 27.4568 71.8481 33.9228 73.1343C40.3888 74.4204 47.091 73.7603 53.1819 71.2374C59.2728 68.7145 64.4787 64.4421 68.1414 58.9604C71.8042 53.4788 73.7591 47.0341 73.7591 40.4414C73.7494 31.6039 70.2344 23.131 63.9853 16.8819C57.7362 10.6328 49.2634 7.1178 40.4258 7.10809ZM59.5791 59.3314C59.8712 59.0048 60.096 58.6238 60.2407 58.2102C60.3853 57.7966 60.4471 57.3586 60.4223 56.9211C60.3975 56.4837 60.2868 56.0554 60.0963 55.6608C59.9059 55.2662 59.6395 54.913 59.3125 54.6214C54.0196 50.0997 47.3784 47.4577 40.4258 47.1081C33.4732 47.4577 26.832 50.0997 21.5391 54.6214C20.8787 55.2093 20.4789 56.0355 20.4277 56.9182C20.3764 57.8008 20.6779 58.6677 21.2658 59.3281C21.8537 59.9885 22.6799 60.3883 23.5625 60.4395C24.4452 60.4908 25.3121 60.1893 25.9725 59.6014C30.0474 56.1705 35.1107 54.1293 40.4258 53.7748C45.7408 54.1297 50.804 56.1709 54.8791 59.6014C55.5387 60.1878 56.4039 60.4886 57.2849 60.438C58.166 60.3874 58.991 59.9894 59.5791 59.3314ZM20.4258 33.7748C20.4258 37.1081 23.4091 37.1081 27.0925 37.1081C30.7758 37.1081 33.7591 37.1081 33.7591 33.7748C33.7591 32.0066 33.0568 30.311 31.8065 29.0607C30.5563 27.8105 28.8606 27.1081 27.0925 27.1081C25.3244 27.1081 23.6287 27.8105 22.3784 29.0607C21.1282 30.311 20.4258 32.0066 20.4258 33.7748ZM47.0925 33.7748C47.0925 37.1081 50.0758 37.1081 53.7591 37.1081C57.4425 37.1081 60.4258 37.1081 60.4258 33.7748C60.4258 32.0066 59.7234 30.311 58.4732 29.0607C57.2229 27.8105 55.5272 27.1081 53.7591 27.1081C51.991 27.1081 50.2953 27.8105 49.0451 29.0607C47.7948 30.311 47.0925 32.0066 47.0925 33.7748Z" fill="white"/>
</g>
<defs>
<clipPath id="clip0_756_2555">
<rect width="80" height="80" fill="white" transform="translate(0.425781 0.441406)"/>
</clipPath>
</defs>
</svg>
