<svg width="100" height="100" viewBox="0 0 100 100" fill="none" xmlns="http://www.w3.org/2000/svg">
<g id="fi-rr-shield-check" clip-path="url(#clip0_658_1505)">
<path id="Vector" d="M77.4212 8.91962L51.3171 0.215457C50.4624 -0.0692147 49.5384 -0.0692147 48.6838 0.215457L22.5796 8.91962C18.4292 10.2983 14.8188 12.9499 12.2614 16.4976C9.70405 20.0453 8.32973 24.3087 8.33375 28.6821V50.003C8.33375 81.5155 46.6671 98.9196 48.3088 99.6446C48.8413 99.8812 49.4176 100.003 50.0004 100.003C50.5832 100.003 51.1595 99.8812 51.6921 99.6446C53.3338 98.9196 91.6671 81.5155 91.6671 50.003V28.6821C91.6711 24.3087 90.2968 20.0453 87.7394 16.4976C85.182 12.9499 81.5716 10.2983 77.4212 8.91962ZM83.3338 50.003C83.3338 72.7321 57.0046 87.6405 50.0004 91.2071C42.9879 87.653 16.6671 72.7905 16.6671 50.003V28.6821C16.6673 26.0583 17.4932 23.501 19.0278 21.3727C20.5623 19.2444 22.7277 17.6529 25.2171 16.8238L50.0004 8.56129L74.7838 16.8238C77.2732 17.6529 79.4385 19.2444 80.9731 21.3727C82.5076 23.501 83.3335 26.0583 83.3338 28.6821V50.003Z" fill="white"/>
<path id="Vector_2" d="M63.7498 34.5846L46.2998 52.0847L36.9498 42.3346C36.5746 41.9244 36.121 41.5934 35.6159 41.3611C35.1107 41.1288 34.5642 41 34.0085 40.9822C33.4528 40.9644 32.8992 41.058 32.3802 41.2575C31.8613 41.457 31.3875 41.7583 30.9868 42.1437C30.586 42.5291 30.2665 42.9908 30.047 43.5016C29.8275 44.0125 29.7124 44.562 29.7086 45.118C29.7048 45.674 29.8122 46.2251 30.0247 46.7389C30.2371 47.2527 30.5503 47.7187 30.9456 48.1097L40.554 58.1097C41.2705 58.8836 42.1366 59.5042 43.0999 59.934C44.0631 60.3637 45.1035 60.5935 46.1581 60.6097H46.2956C47.3292 60.6131 48.3531 60.4112 49.308 60.0156C50.2629 59.6201 51.1297 59.0388 51.8581 58.3055L69.6581 40.5055C70.0469 40.1175 70.3554 39.6568 70.5662 39.1496C70.7769 38.6424 70.8856 38.0987 70.8862 37.5495C70.8868 37.0002 70.7792 36.4563 70.5695 35.9487C70.3599 35.441 70.0523 34.9796 69.6644 34.5909C69.2764 34.2021 68.8157 33.8936 68.3085 33.6828C67.8013 33.4721 67.2576 33.3634 66.7084 33.3628C66.1592 33.3622 65.6152 33.4698 65.1076 33.6795C64.5999 33.8891 64.1386 34.1967 63.7498 34.5846Z" fill="white"/>
</g>
<defs>
<clipPath id="clip0_658_1505">
<rect width="100" height="100" fill="white"/>
</clipPath>
</defs>
</svg>
