<svg width="32" height="32" viewBox="0 0 32 32" fill="none" xmlns="http://www.w3.org/2000/svg">
<g id="fi-rr-trash" clip-path="url(#clip0_525_3432)">
<path id="Vector" d="M27.9999 5.33333H23.8665C23.5571 3.82855 22.7383 2.47646 21.5482 1.50496C20.3581 0.533453 18.8695 0.00193937 17.3332 0L14.6665 0C13.1303 0.00193937 11.6416 0.533453 10.4515 1.50496C9.26146 2.47646 8.44268 3.82855 8.13322 5.33333H3.99988C3.64626 5.33333 3.30712 5.47381 3.05707 5.72386C2.80703 5.97391 2.66655 6.31305 2.66655 6.66667C2.66655 7.02029 2.80703 7.35943 3.05707 7.60948C3.30712 7.85952 3.64626 8 3.99988 8H5.33322V25.3333C5.33533 27.1008 6.03839 28.7953 7.28818 30.045C8.53796 31.2948 10.2324 31.9979 11.9999 32H19.9999C21.7673 31.9979 23.4618 31.2948 24.7116 30.045C25.9614 28.7953 26.6644 27.1008 26.6665 25.3333V8H27.9999C28.3535 8 28.6926 7.85952 28.9427 7.60948C29.1927 7.35943 29.3332 7.02029 29.3332 6.66667C29.3332 6.31305 29.1927 5.97391 28.9427 5.72386C28.6926 5.47381 28.3535 5.33333 27.9999 5.33333ZM14.6665 2.66667H17.3332C18.1602 2.66768 18.9667 2.9245 19.642 3.40192C20.3173 3.87935 20.8284 4.55399 21.1052 5.33333H10.8945C11.1713 4.55399 11.6824 3.87935 12.3577 3.40192C13.033 2.9245 13.8395 2.66768 14.6665 2.66667ZM23.9999 25.3333C23.9999 26.3942 23.5785 27.4116 22.8283 28.1618C22.0782 28.9119 21.0607 29.3333 19.9999 29.3333H11.9999C10.939 29.3333 9.9216 28.9119 9.17146 28.1618C8.42131 27.4116 7.99988 26.3942 7.99988 25.3333V8H23.9999V25.3333Z" fill="#C61849"/>
<path id="Vector_2" d="M13.3333 23.9992C13.687 23.9992 14.0261 23.8587 14.2761 23.6086C14.5262 23.3586 14.6667 23.0195 14.6667 22.6658V14.6659C14.6667 14.3122 14.5262 13.9731 14.2761 13.723C14.0261 13.473 13.687 13.3325 13.3333 13.3325C12.9797 13.3325 12.6406 13.473 12.3905 13.723C12.1405 13.9731 12 14.3122 12 14.6659V22.6658C12 23.0195 12.1405 23.3586 12.3905 23.6086C12.6406 23.8587 12.9797 23.9992 13.3333 23.9992Z" fill="#C61849"/>
<path id="Vector_3" d="M18.6665 23.9992C19.0201 23.9992 19.3593 23.8587 19.6093 23.6086C19.8594 23.3586 19.9998 23.0195 19.9998 22.6658V14.6659C19.9998 14.3122 19.8594 13.9731 19.6093 13.723C19.3593 13.473 19.0201 13.3325 18.6665 13.3325C18.3129 13.3325 17.9737 13.473 17.7237 13.723C17.4736 13.9731 17.3331 14.3122 17.3331 14.6659V22.6658C17.3331 23.0195 17.4736 23.3586 17.7237 23.6086C17.9737 23.8587 18.3129 23.9992 18.6665 23.9992Z" fill="#C61849"/>
</g>
<defs>
<clipPath id="clip0_525_3432">
<rect width="32" height="32" fill="white"/>
</clipPath>
</defs>
</svg>
