<svg width="25" height="25" viewBox="0 0 25 25" fill="none" xmlns="http://www.w3.org/2000/svg">
<g id="fi-rr-upload" clip-path="url(#clip0_511_2734)">
<path id="Vector" d="M11.4655 2.68579L11.4582 18.767C11.4582 19.0433 11.5679 19.3083 11.7633 19.5036C11.9586 19.699 12.2236 19.8087 12.4998 19.8087C12.7761 19.8087 13.0411 19.699 13.2364 19.5036C13.4318 19.3083 13.5415 19.0433 13.5415 18.767L13.5488 2.7035L16.5821 5.73787C16.7775 5.93316 17.0424 6.04286 17.3186 6.04286C17.5948 6.04286 17.8597 5.93316 18.055 5.73787C18.2503 5.54253 18.36 5.27763 18.36 5.00142C18.36 4.7252 18.2503 4.4603 18.055 4.26496L14.7103 0.915999C14.42 0.625604 14.0755 0.395239 13.6962 0.238068C13.3169 0.0808969 12.9104 0 12.4998 0C12.0893 0 11.6828 0.0808969 11.3035 0.238068C10.9242 0.395239 10.5796 0.625604 10.2894 0.915999L6.94463 4.26183C6.74935 4.45717 6.63965 4.72208 6.63965 4.99829C6.63965 5.2745 6.74935 5.53941 6.94463 5.73475C7.13998 5.93003 7.40488 6.03973 7.68109 6.03973C7.95731 6.03973 8.22221 5.93003 8.41755 5.73475L11.4655 2.68579Z" fill="black"/>
<path id="Vector_2" d="M22.9167 17.7077V21.8743C22.9167 22.1506 22.8069 22.4156 22.6116 22.6109C22.4162 22.8063 22.1513 22.916 21.875 22.916H3.125C2.84873 22.916 2.58378 22.8063 2.38843 22.6109C2.19308 22.4156 2.08333 22.1506 2.08333 21.8743V17.7077C2.08333 17.4314 1.97359 17.1665 1.77824 16.9711C1.58289 16.7758 1.31793 16.666 1.04167 16.666C0.765399 16.666 0.500448 16.7758 0.305097 16.9711C0.109747 17.1665 0 17.4314 0 17.7077L0 21.8743C0 22.7031 0.32924 23.498 0.915291 24.084C1.50134 24.6701 2.2962 24.9993 3.125 24.9993H21.875C22.7038 24.9993 23.4987 24.6701 24.0847 24.084C24.6708 23.498 25 22.7031 25 21.8743V17.7077C25 17.4314 24.8903 17.1665 24.6949 16.9711C24.4996 16.7758 24.2346 16.666 23.9583 16.666C23.6821 16.666 23.4171 16.7758 23.2218 16.9711C23.0264 17.1665 22.9167 17.4314 22.9167 17.7077Z" fill="black"/>
</g>
<defs>
<clipPath id="clip0_511_2734">
<rect width="25" height="25" fill="white"/>
</clipPath>
</defs>
</svg>
