<svg width="10" height="12" viewBox="0 0 10 12" fill="none" xmlns="http://www.w3.org/2000/svg">
<path d="M5 7.49987C4.86739 7.49987 4.74022 7.4472 4.64645 7.35343C4.55268 7.25966 4.5 7.13248 4.5 6.99987V2.99987C4.5 2.86727 4.55268 2.74009 4.64645 2.64632C4.74022 2.55255 4.86739 2.49987 5 2.49987C5.13261 2.49987 5.25979 2.55255 5.35356 2.64632C5.44732 2.74009 5.5 2.86727 5.5 2.99987V6.99987C5.5 7.13248 5.44732 7.25966 5.35356 7.35343C5.25979 7.4472 5.13261 7.49987 5 7.49987ZM5.3965 11.8799C6.4765 11.4459 10 9.73937 10 6.02137V3.43587C10.0006 2.91038 9.83528 2.39811 9.5277 1.97203C9.22013 1.54595 8.78595 1.2278 8.287 1.06287L5.1575 0.0253748C5.05533 -0.00910931 4.94467 -0.00910931 4.8425 0.0253748L1.713 1.06287C1.21406 1.2278 0.779876 1.54595 0.472302 1.97203C0.164728 2.39811 -0.000552729 2.91038 1.38875e-06 3.43587V6.02137C1.38875e-06 9.30237 3.5025 11.3094 4.5765 11.8464C4.71234 11.9112 4.85418 11.9626 5 11.9999C5.13558 11.9722 5.26831 11.932 5.3965 11.8799ZM7.972 2.01187C8.27127 2.11108 8.53166 2.30206 8.7162 2.55769C8.90074 2.81332 9.00004 3.1206 9 3.43587V6.02137C9 9.11287 5.9565 10.5769 5.0235 10.9519C4.0795 10.4799 1 8.72937 1 6.02137V3.43587C0.99996 3.1206 1.09926 2.81332 1.2838 2.55769C1.46834 2.30206 1.72874 2.11108 2.028 2.01187L5 1.02687L7.972 2.01187ZM5 8.49988C4.90111 8.49988 4.80444 8.5292 4.72222 8.58414C4.63999 8.63908 4.57591 8.71717 4.53806 8.80853C4.50022 8.8999 4.49032 9.00043 4.50961 9.09742C4.5289 9.19441 4.57652 9.2835 4.64645 9.35343C4.71637 9.42336 4.80547 9.47097 4.90246 9.49027C4.99945 9.50956 5.09998 9.49966 5.19134 9.46181C5.28271 9.42397 5.3608 9.35989 5.41574 9.27766C5.47068 9.19544 5.5 9.09877 5.5 8.99988C5.5 8.86727 5.44732 8.74009 5.35356 8.64632C5.25979 8.55255 5.13261 8.49988 5 8.49988Z" fill="#C61849"/>
</svg>
